<svg version="1.1" id="Layer_1" xmlns="http://www.w3.org/2000/svg" xmlns:xlink="http://www.w3.org/1999/xlink" x="0px" y="0px"
	 width="100%" viewBox="0 0 512 512" enable-background="new 0 0 512 512" xml:space="preserve">
<path fill="#000000" opacity="1.000000" stroke="none" 
	d="
M358.000000,513.000000 
	C238.695663,513.000000 119.891312,513.000000 1.043486,513.000000 
	C1.043486,342.403961 1.043486,171.807922 1.043486,1.105940 
	C171.554337,1.105940 342.108765,1.105940 512.831604,1.105940 
	C512.831604,171.666534 512.831604,342.333252 512.831604,513.000000 
	C461.474518,513.000000 409.987274,513.000000 358.000000,513.000000 
M461.947968,187.355225 
	C461.618866,187.087372 461.289764,186.819519 461.019806,186.475403 
	C461.019806,186.475403 460.943817,186.415939 461.035858,185.724884 
	C460.715851,185.442169 460.395844,185.159454 460.064117,184.944107 
	C460.064117,184.944107 460.132111,184.936829 460.005280,184.386261 
	C459.686279,184.217834 459.367249,184.049393 459.045074,183.956070 
	C459.045074,183.956070 459.120239,183.958221 458.969696,183.418961 
	C458.655151,183.244705 458.340607,183.070450 458.018494,182.979507 
	C458.018494,182.979507 458.101837,182.986664 457.945312,182.373184 
	C457.618927,182.107590 457.292511,181.841995 456.991547,181.518066 
	C456.991547,181.518066 456.928162,181.512390 456.978577,180.713196 
	C456.302979,180.413513 455.627380,180.113831 454.682007,179.201736 
	C448.800507,173.516220 442.919006,167.830688 436.405457,161.847382 
	C434.292664,160.544006 432.179901,159.240631 429.811737,157.312103 
	C427.888947,155.915070 425.966187,154.518036 423.387329,152.838593 
	C422.774109,152.283691 422.244659,151.568924 421.535400,151.197372 
	C405.575348,142.836197 388.861176,137.140900 370.608307,137.022980 
	C363.442383,136.976685 356.246948,136.615265 349.119049,137.136627 
	C343.674835,137.534836 338.315765,139.097000 332.127411,140.058533 
	C329.653900,140.631271 327.052521,140.889984 324.730743,141.835358 
	C317.652008,144.717621 310.576691,147.651535 303.717590,151.009644 
	C300.835388,152.420715 298.498993,154.946716 295.281921,157.254837 
	C290.903412,159.965317 285.910614,162.035614 282.276886,165.522308 
	C275.165405,172.346054 268.720947,179.880356 262.226410,187.317947 
	C261.008972,188.712158 260.846619,191.027695 260.005829,193.419159 
	C259.959015,193.591736 259.912201,193.764313 259.233826,194.226517 
	C257.452515,196.258774 255.612366,198.243057 253.905228,200.335800 
	C251.900314,202.793625 250.010880,205.345673 247.713852,207.228149 
	C242.857941,199.783142 238.002045,192.338120 233.103867,184.921188 
	C233.103867,184.921188 233.139557,184.904434 232.871094,184.330032 
	C232.246384,183.601624 231.621674,182.873199 230.385696,181.817062 
	C227.317825,178.542160 224.249954,175.267242 221.033127,171.269745 
	C217.728638,168.470291 214.424133,165.670837 211.056442,162.142944 
	C207.717743,160.146927 204.379044,158.150894 200.399582,155.862335 
	C195.940475,153.558975 191.481354,151.255630 186.995987,148.980988 
	C186.995987,148.980988 187.024033,148.966537 186.745880,148.328995 
	C184.734406,146.989029 182.896591,145.097916 180.682709,144.400253 
	C168.127899,140.444031 155.648315,136.095245 142.105896,136.961487 
	C135.995865,137.352310 129.813126,137.372604 123.712372,136.912079 
	C118.369751,136.508759 113.683769,138.184402 108.086426,139.993088 
	C102.817558,141.456284 97.298439,142.350143 92.343712,144.528015 
	C86.266975,147.199081 80.662216,150.943893 74.139435,154.068100 
	C69.721413,157.004684 65.303398,159.941269 60.264271,163.176926 
	C56.290359,167.324448 50.104641,168.849945 47.466972,174.765152 
	C46.192577,177.623123 43.154709,179.643921 41.227165,182.272461 
	C37.656006,187.142410 33.698750,191.872574 31.022675,197.221497 
	C27.137430,204.987305 23.522993,213.042236 21.130051,221.358566 
	C18.645935,229.991760 17.754026,239.083084 16.053127,248.476013 
	C16.087051,248.644104 16.120975,248.812195 15.751333,249.745453 
	C15.890524,256.837128 16.029715,263.928802 16.041098,271.917450 
	C16.647295,277.644104 17.253490,283.370728 17.974493,289.889465 
	C18.980682,292.287079 19.986874,294.684723 21.001678,297.802216 
	C21.339613,299.143066 21.677547,300.483948 21.417070,302.226105 
	C24.662594,309.958862 27.908117,317.691650 31.217440,325.690094 
	C31.217440,325.690094 31.486467,325.642242 31.762119,326.115875 
	C32.199844,326.330963 32.637569,326.546051 33.646927,327.094849 
	C37.983620,330.190857 37.728130,326.814606 37.980785,324.049500 
	C38.679337,316.404327 39.412636,308.762299 40.772736,300.779419 
	C43.326229,296.874512 45.666683,292.807831 48.481434,289.101318 
	C53.097237,283.023224 60.521511,281.714172 67.861702,278.954987 
	C72.205833,278.984528 76.549957,279.014038 81.219780,279.668945 
	C82.137512,279.813202 83.055237,279.957489 84.278618,280.686859 
	C85.140511,280.810730 86.002411,280.934601 87.196198,281.688202 
	C97.662125,286.354858 104.929756,293.877075 107.947525,305.668823 
	C108.229317,306.135376 108.511108,306.601929 108.985863,307.916626 
	C109.046753,309.944122 109.107635,311.971619 109.012115,314.928375 
	C109.008080,323.968201 108.953888,333.008453 109.038940,342.047455 
	C109.057747,344.046631 109.568993,346.041138 109.940910,348.945099 
	C110.339401,352.947479 110.737892,356.949860 111.038452,361.868317 
	C110.350449,373.555450 115.053810,383.753754 120.293121,393.655426 
	C122.119987,397.107971 125.402580,399.790253 128.588150,403.097656 
	C129.116821,403.742889 129.645477,404.388123 130.307938,405.687469 
	C135.512314,412.721497 142.020462,418.166931 150.735718,421.989288 
	C153.227463,422.996429 155.662399,424.188690 158.222137,424.974365 
	C164.714539,426.967133 170.771912,430.794464 178.919846,429.962433 
	C184.287018,429.901764 189.654205,429.841064 195.792709,429.916046 
	C198.048691,429.260193 200.384628,428.797607 202.542618,427.904907 
	C206.131516,426.420258 209.606247,424.659607 213.769043,422.976379 
	C214.192566,422.927612 214.616089,422.878845 215.765717,422.712952 
	C220.848709,419.752014 225.931717,416.791046 231.596161,413.847992 
	C232.082214,413.263489 232.568283,412.678986 233.538025,411.941132 
	C233.698212,411.886810 233.858398,411.832520 234.699112,411.700592 
	C236.974823,409.057587 239.250534,406.414581 241.748413,403.733887 
	C241.748413,403.733887 241.783340,403.511261 242.246521,403.173584 
	C242.760651,402.441650 243.274765,401.709686 243.911713,400.208893 
	C245.622421,397.959534 247.310150,395.692230 249.048569,393.464478 
	C252.843002,388.601959 254.003540,382.821838 254.986099,376.167786 
	C255.008469,375.135620 255.030838,374.103485 255.717026,372.745300 
	C256.795471,369.447449 258.672211,366.183838 258.815460,362.845825 
	C259.467926,347.642426 259.718262,332.419434 259.952026,317.200989 
	C260.260895,297.095795 271.301208,283.023224 291.934937,278.937805 
	C296.963837,279.578857 301.992706,280.219879 307.749268,280.996582 
	C309.174347,281.683746 310.827026,282.107025 311.984253,283.104828 
	C316.458160,286.962463 320.774048,291.003357 324.993317,295.680420 
	C326.024414,297.679230 327.055511,299.678009 327.966675,302.483765 
	C328.342041,303.138641 328.717377,303.793518 329.002075,304.561188 
	C329.002075,304.561188 329.114746,304.652008 329.042297,305.655975 
	C329.015900,322.648773 328.969208,339.641571 329.007294,356.634247 
	C329.009918,357.806183 329.645233,358.976654 329.972168,360.995544 
	C330.939789,365.351929 331.907410,369.708313 333.017578,374.535065 
	C333.017578,374.535065 333.195923,374.993042 333.068298,375.780975 
	C334.823547,381.312073 336.156921,387.069092 341.512878,390.976288 
	C341.512878,390.976288 341.890137,391.027954 341.750763,391.725922 
	C341.550903,392.631134 340.867188,393.893097 341.229187,394.383972 
	C343.687897,397.718262 346.367126,400.889923 349.235901,404.722015 
	C355.623322,411.540802 362.355896,418.076508 371.174347,421.535034 
	C379.298401,424.721252 387.744385,427.086609 396.964691,429.943787 
	C402.641815,429.893616 408.318909,429.843445 414.774902,429.924042 
	C416.423096,429.272797 418.074188,428.054871 419.718964,428.063263 
	C429.578766,428.113556 437.831573,423.328247 445.897736,418.818542 
	C450.909637,416.016449 454.714661,411.055695 459.558929,406.887573 
	C459.739746,406.594879 459.920563,406.302185 460.781067,405.938477 
	C473.440552,395.187347 480.048950,381.322479 481.980011,364.260925 
	C482.012329,363.526215 482.044617,362.791473 482.811066,361.592224 
	C482.870605,361.265961 482.982117,360.939728 482.982391,360.613434 
	C483.015137,322.743530 483.052368,284.873596 483.013092,247.003738 
	C483.011658,245.631622 482.253082,244.260284 481.942932,242.081375 
	C480.682373,235.894196 480.088715,229.472061 478.010437,223.572968 
	C474.593750,213.874908 470.214966,204.515808 466.077789,194.355713 
	C465.740387,193.870926 465.402985,193.386139 465.044037,192.965652 
	C465.044037,192.965652 465.111145,192.975571 464.959747,192.433548 
	C464.643921,192.257523 464.328125,192.081497 464.007080,191.996521 
	C464.007080,191.996521 464.098145,192.001617 464.065582,191.265167 
	C463.691193,190.697311 463.316803,190.129456 462.976227,189.502853 
	C462.976227,189.502853 462.913910,189.476196 462.970642,188.793045 
	C462.664337,188.500259 462.358002,188.207458 462.028015,187.975418 
	C462.028015,187.975418 462.093231,187.975677 461.947968,187.355225 
z"/>
<path fill="#01B7D0" opacity="1.000000" stroke="none" 
	d="
M460.101379,406.009521 
	C459.920563,406.302185 459.739746,406.594879 459.016449,406.825928 
	C455.901245,407.836426 453.160187,408.625732 450.789062,410.036743 
	C444.986511,413.489746 439.648926,417.865387 433.572357,420.677216 
	C427.398041,423.534332 420.562866,424.963379 413.547455,427.008545 
	C407.397461,426.980988 401.717072,426.962646 395.799469,426.675415 
	C395.306244,426.197510 395.082764,425.897858 394.789520,425.792847 
	C385.992615,422.643250 376.574677,420.834991 369.522766,413.929932 
	C368.991180,413.409363 367.942688,413.462402 367.241882,413.061218 
	C363.856171,411.122925 360.412567,409.262115 357.173645,407.098175 
	C354.340271,405.205109 351.751709,402.945709 348.892822,400.542908 
	C346.450470,397.167786 344.170288,394.097870 341.890137,391.027954 
	C341.890137,391.027954 341.512878,390.976288 341.258850,390.525574 
	C339.320404,385.049622 337.636017,380.024414 335.940063,374.604279 
	C335.274750,369.182526 334.577393,364.160797 333.989044,359.126312 
	C333.758759,357.155426 333.694763,355.156250 333.688812,353.169556 
	C333.655640,342.090271 333.533234,331.008942 333.697784,319.932129 
	C333.833313,310.806244 333.627655,301.837067 327.951569,293.648102 
	C324.582001,283.160553 315.883179,279.956177 306.740356,276.985992 
	C306.321594,276.973541 306.153992,276.974091 305.753662,276.693604 
	C302.071594,273.185913 294.828003,272.976410 291.002777,275.994141 
	C290.998169,275.995453 290.991058,276.003510 290.559204,275.993286 
	C287.106537,276.645142 283.747284,276.680908 281.132141,278.093872 
	C274.819458,281.504608 268.623657,284.555389 263.731476,290.836304 
	C259.994537,295.634003 257.753876,300.987213 257.432556,305.650330 
	C255.887527,328.072174 255.713776,350.588531 255.053207,373.071320 
	C255.030838,374.103485 255.008469,375.135620 254.558105,376.592529 
	C253.039307,378.050629 251.666031,378.912750 250.915085,380.152008 
	C249.220566,382.948242 248.046082,386.067993 246.277191,388.809052 
	C242.707016,394.341431 238.881851,399.709290 235.113968,405.427979 
	C235.037369,406.094055 235.008636,406.477142 234.660873,407.006683 
	C231.856903,408.459991 229.069092,409.400360 226.950699,411.150848 
	C222.667709,414.689972 217.225586,417.134491 215.039612,422.830078 
	C214.616089,422.878845 214.192566,422.927612 213.177856,422.851685 
	C206.722794,424.130707 200.858917,425.534393 194.527924,426.948883 
	C188.693726,426.998718 183.326645,427.037781 177.539673,427.060669 
	C175.172211,426.738525 173.130539,426.707031 171.294067,426.077209 
	C164.807678,423.852570 158.391571,421.423065 151.877380,418.784821 
	C149.161484,411.366730 145.059341,407.891510 138.000549,409.002197 
	C137.999390,409.001221 137.996307,408.998779 137.894562,408.718933 
	C137.197205,407.961853 136.601578,407.484650 135.898773,406.727142 
	C135.186401,405.972229 134.581238,405.497589 133.987732,405.012085 
	C133.999390,405.001221 133.973618,405.024750 133.966110,404.656128 
	C131.297638,401.203156 128.636658,398.118835 125.849113,394.721436 
	C117.331009,384.109589 116.384483,371.290344 113.674896,358.675659 
	C113.079033,355.933044 112.142914,353.563477 112.107819,351.180664 
	C111.940056,339.788940 112.016602,328.393585 112.307327,316.800751 
	C112.996407,314.901001 114.264503,312.709991 113.633347,311.576569 
	C108.550224,302.447968 111.040596,289.232849 98.876007,283.917877 
	C98.451790,283.732544 98.068512,283.285278 97.830841,282.866608 
	C94.527870,277.047913 88.961464,276.122009 82.828568,275.641663 
	C76.675751,273.601410 70.740334,272.366577 64.572250,275.974915 
	C51.349358,278.277191 42.552879,285.162994 38.653259,297.842682 
	C32.928082,292.133362 37.772991,284.228455 33.911446,277.199738 
	C32.790989,282.421753 32.056305,286.610138 30.962978,290.702698 
	C30.066988,294.056580 29.251688,297.080811 30.749306,300.686615 
	C32.109356,303.961212 32.423862,307.755646 32.689449,311.358459 
	C32.800507,312.864960 31.594418,314.468536 30.799847,315.729919 
	C29.682468,313.539551 28.924992,311.534882 27.782595,309.780884 
	C25.997175,307.039673 23.951117,304.468201 22.015480,301.824799 
	C21.677547,300.483948 21.339613,299.143066 21.324497,297.240845 
	C21.875856,296.446228 22.322557,296.190887 22.301443,295.983032 
	C21.507238,288.165253 20.675798,280.351166 19.807047,272.541290 
	C19.783644,272.330902 19.293932,272.172394 19.022224,271.521698 
	C18.980341,263.335571 18.937908,255.617416 18.913956,247.515808 
	C18.954084,246.108841 18.975735,245.085373 19.028084,243.728348 
	C19.072018,242.949142 19.085251,242.503479 19.346506,241.934753 
	C20.000883,241.240662 20.407236,240.669632 20.850052,239.633652 
	C20.953251,235.479538 21.019987,231.790405 21.380323,227.905151 
	C25.490700,218.506897 29.223501,209.268188 33.201332,200.136185 
	C33.921165,198.483627 35.646172,197.268890 37.172562,196.073364 
	C38.315838,197.506378 39.193672,198.718033 40.077267,199.937653 
	C41.075233,194.708786 42.001728,189.854385 42.938023,184.975784 
	C42.947823,184.951584 42.992218,184.924088 43.372826,184.911926 
	C48.246380,184.380997 53.633610,185.371735 54.267792,178.446533 
	C54.328178,177.787125 55.406982,177.270142 55.872208,176.590637 
	C58.951759,172.092621 61.992828,167.568268 65.271233,163.030685 
	C65.496040,163.008881 65.946068,162.969742 66.285843,163.039764 
	C68.172554,162.840546 69.810471,162.808777 71.249321,162.257462 
	C75.543068,160.612259 79.758751,158.763336 84.100487,157.246582 
	C84.708450,157.775665 85.220848,158.052124 85.733238,158.328583 
	C85.834671,158.065475 85.936096,157.802368 86.037529,157.539276 
	C85.356308,157.361481 84.675087,157.183670 84.109688,156.690948 
	C89.532639,153.267746 94.610298,149.629517 100.212875,147.203583 
	C105.572197,144.882996 111.482216,143.839523 117.131302,142.170807 
	C117.504356,142.060608 117.716949,141.407196 118.472504,140.996216 
	C138.396255,140.798492 157.918549,139.734131 176.645966,146.952835 
	C179.883087,148.200623 183.553665,148.323853 187.024033,148.966537 
	C187.024033,148.966537 186.995987,148.980988 187.067154,149.316849 
	C189.977081,154.978622 196.005646,158.886353 200.198471,158.287018 
	C202.842911,160.062790 205.308853,161.554153 207.958847,163.333618 
	C209.121429,164.084091 210.099960,164.546463 211.252075,165.156219 
	C211.652130,165.506897 211.860382,165.727432 212.084824,166.310730 
	C213.080948,167.460663 214.042603,168.265045 215.231888,169.278778 
	C216.608948,170.340744 217.758377,171.193359 218.951782,172.403992 
	C222.744843,177.476257 226.448990,182.227783 230.293655,186.862762 
	C230.841949,187.523743 232.071060,187.619995 232.989685,187.992050 
	C232.994278,188.006470 233.021133,188.020432 233.114136,188.300842 
	C233.794739,189.068954 234.382324,189.556686 234.988281,190.027344 
	C235.006668,190.010269 234.956543,190.010880 234.961121,190.366852 
	C235.630051,191.829071 236.294418,192.935287 236.974838,194.019379 
	C236.990875,193.997238 236.949783,194.038666 236.999649,194.411575 
	C238.371048,197.832306 239.692581,200.880127 241.055984,204.287216 
	C242.743896,206.420822 244.389938,208.195160 246.181732,210.278839 
	C250.160339,212.352417 254.944168,209.394379 256.822601,204.144333 
	C257.247253,202.957458 257.543884,201.119080 258.379028,200.787109 
	C262.532928,199.135925 260.980682,196.551178 259.865387,193.936890 
	C259.912201,193.764313 259.959015,193.591736 260.420471,193.094406 
	C265.638977,188.381592 270.536194,184.089615 275.200348,179.557755 
	C277.044098,177.766327 278.056549,175.074066 279.989258,173.428055 
	C285.644928,168.611298 291.594086,164.140289 297.368286,159.459839 
	C298.087769,158.876663 298.446289,157.848251 298.992188,157.015121 
	C299.012299,157.004105 299.034698,156.964340 299.361847,156.943878 
	C300.115601,156.833755 300.542175,156.744110 301.317993,156.600098 
	C309.578461,152.931915 317.500183,149.340652 325.392273,145.685379 
	C326.980896,144.949615 328.457062,143.971008 330.422363,143.091125 
	C339.909393,142.380630 348.959137,141.683426 357.941833,141.325409 
	C358.365173,143.229218 358.423370,145.711884 359.427765,146.184738 
	C362.336365,147.554123 365.578674,148.488159 368.778137,148.888351 
	C371.896088,149.278366 375.426819,149.534088 377.756653,144.600586 
	C374.866882,143.995331 372.466919,143.562607 370.104462,142.978287 
	C367.711792,142.386490 365.356232,141.644867 363.269043,140.724365 
	C365.583160,140.015778 367.635223,139.102432 369.636200,139.203354 
	C372.039948,139.324570 374.385010,140.759140 376.781952,140.840012 
	C385.598785,141.137482 394.004547,142.744614 401.954346,146.780121 
	C404.392059,148.017578 407.306885,148.315231 410.128357,149.357269 
	C412.170898,150.763779 414.088348,151.856232 416.014679,152.960876 
	C416.023590,152.973068 416.050232,152.987289 416.151672,153.303635 
	C417.059143,155.048706 417.865234,156.477432 418.812897,158.157104 
	C422.551361,156.302505 425.294312,156.918823 427.312317,160.898926 
	C427.915405,162.088425 430.382538,162.332840 432.244446,163.243561 
	C433.995514,163.987427 435.497742,164.498001 437.082275,165.347809 
	C438.625916,167.431305 439.988800,169.270554 441.564819,170.904221 
	C451.126190,180.815445 461.688080,189.958542 465.806915,203.902512 
	C466.399811,205.909775 468.002533,207.599503 468.766785,209.579422 
	C470.344147,213.665878 471.671112,217.848938 472.706299,221.983276 
	C470.269379,221.495056 468.227203,221.015823 466.223022,220.545502 
	C463.784576,226.799118 464.714905,227.791290 472.742401,227.538818 
	C472.828552,228.996155 472.984863,230.461838 472.990112,231.928070 
	C473.015656,239.064255 472.866669,246.204666 473.084351,253.334274 
	C473.147186,255.392715 474.223083,257.420258 474.834534,259.461945 
	C475.558044,257.533203 476.256256,255.594452 477.013092,253.678864 
	C477.637360,252.098862 478.330963,250.546265 479.006531,249.392151 
	C479.618866,251.908401 480.218475,254.014023 480.834320,256.495056 
	C480.844513,257.873962 480.838501,258.877533 480.518921,260.103912 
	C479.811218,262.551575 479.080231,264.775513 479.074097,267.001404 
	C478.996552,295.128937 479.145172,323.257629 478.940063,351.383881 
	C478.887329,358.620880 477.804901,365.850342 477.138489,373.390686 
	C477.032532,374.112213 476.983582,374.526276 476.638733,375.105164 
	C475.885986,376.505981 475.429138,377.742035 474.743408,379.258850 
	C472.186279,383.995148 469.916870,388.482697 467.513184,392.897125 
	C465.112518,397.306000 462.577484,401.641724 460.101379,406.009521 
M126.061607,307.879486 
	C126.350891,308.816681 126.365372,310.041382 126.984680,310.633270 
	C128.427094,312.011841 130.160736,313.085724 131.776367,314.283051 
	C132.516022,312.441650 133.954605,310.562683 133.858154,308.766174 
	C133.614273,304.223450 132.862015,299.678558 131.901154,295.223450 
	C131.646408,294.042297 129.900070,293.182831 128.838608,292.175659 
	C127.900421,293.473389 126.299812,294.700745 126.152924,296.082581 
	C125.769981,299.685181 126.024078,303.355469 126.061607,307.879486 
M281.809570,264.907349 
	C281.085236,266.212372 279.462708,267.844513 279.797546,268.763763 
	C281.018066,272.114777 289.475616,272.885559 291.741241,270.090942 
	C293.700317,267.674469 292.634125,264.596771 289.427185,264.202057 
	C287.172119,263.924500 284.823425,264.407532 281.809570,264.907349 
M31.319046,265.127319 
	C31.648352,267.197357 31.977657,269.267365 32.306961,271.337402 
	C32.862961,271.339600 33.418961,271.341827 33.974957,271.344025 
	C34.599365,269.588226 35.449223,267.870667 35.755882,266.061005 
	C35.916325,265.114227 35.122639,264.005768 34.759865,262.970306 
	C33.701908,263.465271 32.643951,263.960236 31.319046,265.127319 
z"/>
<path fill="#1EACB8" opacity="1.000000" stroke="none" 
	d="
M480.818054,256.119659 
	C480.218475,254.014023 479.618866,251.908401 479.013824,248.947906 
	C478.345856,243.747971 477.925476,239.347855 476.953766,235.073044 
	C475.948242,230.649429 474.407684,226.347443 473.101135,221.992264 
	C471.671112,217.848938 470.344147,213.665878 468.766785,209.579422 
	C468.002533,207.599503 466.399811,205.909775 465.806915,203.902512 
	C461.688080,189.958542 451.126190,180.815445 441.564819,170.904221 
	C439.988800,169.270554 438.625916,167.431305 437.175171,165.126007 
	C437.136414,163.758362 437.086945,162.951752 437.037506,162.145157 
	C442.919006,167.830688 448.800507,173.516220 454.981903,179.806091 
	C455.830597,180.777756 456.379364,181.145081 456.928162,181.512390 
	C456.928162,181.512390 456.991547,181.518066 457.088196,181.848663 
	C457.490509,182.448395 457.796173,182.717529 458.101837,182.986664 
	C458.101837,182.986664 458.018494,182.979507 458.101868,183.204819 
	C458.496887,183.606155 458.808563,183.782181 459.120239,183.958221 
	C459.120239,183.958221 459.045074,183.956070 459.091187,184.206070 
	C459.468872,184.616318 459.800507,184.776566 460.132111,184.936829 
	C460.132111,184.936829 460.064117,184.944107 460.073608,185.227493 
	C460.369995,185.812561 460.656891,186.114258 460.943817,186.415939 
	C460.943817,186.415939 461.019806,186.475403 461.089355,186.826584 
	C461.470337,187.443741 461.781799,187.709702 462.093231,187.975677 
	C462.093231,187.975677 462.028015,187.975418 462.049622,188.262970 
	C462.352112,188.859085 462.632996,189.167648 462.913910,189.476196 
	C462.913910,189.476196 462.976227,189.502853 462.950989,189.900131 
	C463.316528,190.865479 463.707336,191.433548 464.098145,192.001617 
	C464.098145,192.001617 464.007080,191.996521 464.108826,192.203949 
	C464.510742,192.599426 464.810944,192.787506 465.111145,192.975586 
	C465.111145,192.975571 465.044037,192.965652 465.019196,193.262451 
	C465.410187,194.044113 465.825989,194.528961 466.241821,195.013794 
	C470.214966,204.515808 474.593750,213.874908 478.010437,223.572968 
	C480.088715,229.472061 480.682373,235.894196 481.674927,242.827225 
	C481.294189,246.318527 481.181519,249.063965 481.049683,252.242737 
	C480.959717,253.823914 480.888885,254.971786 480.818054,256.119659 
z"/>
<path fill="#17A4B2" opacity="1.000000" stroke="none" 
	d="
M255.385117,372.908325 
	C255.713776,350.588531 255.887527,328.072174 257.432556,305.650330 
	C257.753876,300.987213 259.994537,295.634003 263.731476,290.836304 
	C268.623657,284.555389 274.819458,281.504608 281.132141,278.093872 
	C283.747284,276.680908 287.106537,276.645142 290.565887,276.343018 
	C291.011322,277.402679 291.018280,278.102356 291.025238,278.802032 
	C271.301208,283.023224 260.260895,297.095795 259.952026,317.200989 
	C259.718262,332.419434 259.467926,347.642426 258.815460,362.845825 
	C258.672211,366.183838 256.795471,369.447449 255.385117,372.908325 
z"/>
<path fill="#1CA8B4" opacity="1.000000" stroke="none" 
	d="
M410.003204,149.043243 
	C407.306885,148.315231 404.392059,148.017578 401.954346,146.780121 
	C394.004547,142.744614 385.598785,141.137482 376.781952,140.840012 
	C374.385010,140.759140 372.039948,139.324570 369.636200,139.203354 
	C367.635223,139.102432 365.583160,140.015778 362.855042,140.719574 
	C360.773865,140.968277 359.391388,140.977264 358.008881,140.986237 
	C348.959137,141.683426 339.909393,142.380630 330.643097,142.869904 
	C331.257324,141.821762 332.088074,140.981598 332.918823,140.141418 
	C338.315765,139.097000 343.674835,137.534836 349.119049,137.136627 
	C356.246948,136.615265 363.442383,136.976685 370.608307,137.022980 
	C388.861176,137.140900 405.575348,142.836197 421.535400,151.197372 
	C422.244659,151.568924 422.774109,152.283691 423.557831,153.264191 
	C421.168976,153.455643 418.609589,153.221466 416.050232,152.987289 
	C416.050232,152.987289 416.023590,152.973068 415.896851,152.643570 
	C413.847778,151.223801 411.925507,150.133514 410.003204,149.043243 
z"/>
<path fill="#23A8B6" opacity="1.000000" stroke="none" 
	d="
M186.884949,148.647766 
	C183.553665,148.323853 179.883087,148.200623 176.645966,146.952835 
	C157.918549,139.734131 138.396255,140.798492 118.040466,140.984131 
	C114.394318,140.632217 111.648521,140.282135 108.902718,139.932068 
	C113.683769,138.184402 118.369751,136.508759 123.712372,136.912079 
	C129.813126,137.372604 135.995865,137.352310 142.105896,136.961487 
	C155.648315,136.095245 168.127899,140.444031 180.682709,144.400253 
	C182.896591,145.097916 184.734406,146.989029 186.884949,148.647766 
z"/>
<path fill="#2DACBB" opacity="1.000000" stroke="none" 
	d="
M18.997383,244.061890 
	C18.975735,245.085373 18.954084,246.108841 18.574820,247.537231 
	C17.533401,247.952774 16.849598,247.963425 16.165798,247.974060 
	C17.754026,239.083084 18.645935,229.991760 21.130051,221.358566 
	C23.522993,213.042236 27.137430,204.987305 31.022675,197.221497 
	C33.698750,191.872574 37.656006,187.142410 41.227165,182.272461 
	C43.154709,179.643921 46.192577,177.623123 47.466972,174.765152 
	C50.104641,168.849945 56.290359,167.324448 60.655422,163.115265 
	C61.046574,163.053589 61.207710,163.229401 61.073792,163.535095 
	C58.458313,166.864960 56.024223,169.929688 53.483597,172.903397 
	C50.029118,176.946732 46.493206,180.920486 42.992218,184.924088 
	C42.992218,184.924088 42.947823,184.951584 42.638596,185.113159 
	C40.521954,188.800491 38.714539,192.326263 36.907124,195.852020 
	C35.646172,197.268890 33.921165,198.483627 33.201332,200.136185 
	C29.223501,209.268188 25.490700,218.506897 21.263199,227.737976 
	C20.216084,230.645142 19.360336,233.496994 19.009871,236.409637 
	C18.707275,238.924484 18.979355,241.508469 18.997383,244.061890 
z"/>
<path fill="#27ADBD" opacity="1.000000" stroke="none" 
	d="
M328.031372,294.000793 
	C333.627655,301.837067 333.833313,310.806244 333.697784,319.932129 
	C333.533234,331.008942 333.655640,342.090271 333.688812,353.169556 
	C333.694763,355.156250 333.758759,357.155426 333.989044,359.126312 
	C334.577393,364.160797 335.274750,369.182526 335.596497,374.601776 
	C334.574982,374.993805 333.885468,374.993408 333.195923,374.993042 
	C333.195923,374.993042 333.017578,374.535065 332.986145,373.879578 
	C332.641815,370.421844 332.418152,367.605927 331.990631,364.821320 
	C331.575195,362.115356 330.950714,359.441498 330.384308,356.301941 
	C330.311859,341.551361 330.330353,327.251801 330.184753,312.953918 
	C330.156586,310.183258 329.487946,307.419128 329.114746,304.652008 
	C329.114746,304.652008 329.002075,304.561188 329.123474,304.105286 
	C328.858765,302.991852 328.472687,302.334351 328.086609,301.676819 
	C327.055511,299.678009 326.024414,297.679230 325.381073,295.303467 
	C326.523010,294.617920 327.277191,294.309357 328.031372,294.000793 
z"/>
<path fill="#0DB4C1" opacity="1.000000" stroke="none" 
	d="
M108.494568,139.962585 
	C111.648521,140.282135 114.394318,140.632217 117.572159,140.994370 
	C117.716949,141.407196 117.504356,142.060608 117.131302,142.170807 
	C111.482216,143.839523 105.572197,144.882996 100.212875,147.203583 
	C94.610298,149.629517 89.532639,153.267746 84.112732,156.688019 
	C83.999939,157.000000 84.004921,156.993973 84.004913,156.993958 
	C79.758751,158.763336 75.543068,160.612259 71.249321,162.257462 
	C69.810471,162.808777 68.172554,162.840546 66.431770,162.737488 
	C69.109756,159.651642 71.981583,156.938080 74.853409,154.224503 
	C80.662216,150.943893 86.266975,147.199081 92.343712,144.528015 
	C97.298439,142.350143 102.817558,141.456284 108.494568,139.962585 
z"/>
<path fill="#23A8B6" opacity="1.000000" stroke="none" 
	d="
M349.054932,400.848175 
	C351.751709,402.945709 354.340271,405.205109 357.173645,407.098175 
	C360.412567,409.262115 363.856171,411.122925 367.241882,413.061218 
	C367.942688,413.462402 368.991180,413.409363 369.522766,413.929932 
	C376.574677,420.834991 385.992615,422.643250 394.789520,425.792847 
	C395.082764,425.897858 395.306244,426.197510 395.794922,427.035004 
	C396.034607,428.380188 396.041595,429.096863 396.048584,429.813507 
	C387.744385,427.086609 379.298401,424.721252 371.174347,421.535034 
	C362.355896,418.076508 355.623322,411.540802 349.113708,404.010925 
	C349.012695,402.482635 349.033813,401.665405 349.054932,400.848175 
z"/>
<path fill="#1EACB8" opacity="1.000000" stroke="none" 
	d="
M477.195496,373.083282 
	C477.804901,365.850342 478.887329,358.620880 478.940063,351.383881 
	C479.145172,323.257629 478.996552,295.128937 479.074097,267.001404 
	C479.080231,264.775513 479.811218,262.551575 480.565674,260.582764 
	C480.953979,291.240997 480.965210,321.643219 481.043518,352.045319 
	C481.049408,354.330017 481.533600,356.613434 481.811127,359.294128 
	C481.910187,360.479462 481.993530,361.268097 482.076904,362.056763 
	C482.044617,362.791473 482.012329,363.526215 481.617126,364.788849 
	C479.901337,367.905609 478.548401,370.494446 477.195496,373.083282 
z"/>
<path fill="#2DACBB" opacity="1.000000" stroke="none" 
	d="
M83.028435,275.970245 
	C88.961464,276.122009 94.527870,277.047913 97.830841,282.866608 
	C98.068512,283.285278 98.451790,283.732544 98.876007,283.917877 
	C111.040596,289.232849 108.550224,302.447968 113.633347,311.576569 
	C114.264503,312.709991 112.996407,314.901001 112.109497,316.627747 
	C111.135719,316.438080 110.660797,316.222565 110.108231,315.715454 
	C109.743233,314.948914 109.455879,314.474030 109.168518,313.999115 
	C109.107635,311.971619 109.046753,309.944122 109.031937,307.308594 
	C108.744827,306.159332 108.411644,305.618103 108.078453,305.076843 
	C104.929756,293.877075 97.662125,286.354858 87.181854,281.138428 
	C86.773109,279.874115 86.378708,279.159576 85.984306,278.445068 
	C85.313858,278.997314 84.643410,279.549530 83.972961,280.101776 
	C83.055237,279.957489 82.137512,279.813202 81.262100,279.114441 
	C81.540398,277.759430 81.776367,276.958893 82.265991,276.109375 
	C82.689255,276.030304 82.858849,276.000275 83.028435,275.970245 
z"/>
<path fill="#23A8B6" opacity="1.000000" stroke="none" 
	d="
M414.017090,427.017792 
	C420.562866,424.963379 427.398041,423.534332 433.572357,420.677216 
	C439.648926,417.865387 444.986511,413.489746 450.789062,410.036743 
	C453.160187,408.625732 455.901245,407.836426 458.767670,406.914062 
	C454.714661,411.055695 450.909637,416.016449 445.897736,418.818542 
	C437.831573,423.328247 429.578766,428.113556 419.718964,428.063263 
	C418.074188,428.054871 416.423096,429.272797 414.389709,429.511566 
	C414.008728,428.405334 414.012909,427.711548 414.017090,427.017792 
z"/>
<path fill="#2DACBB" opacity="1.000000" stroke="none" 
	d="
M298.972076,157.026138 
	C298.446289,157.848251 298.087769,158.876663 297.368286,159.459839 
	C291.594086,164.140289 285.644928,168.611298 279.989258,173.428055 
	C278.056549,175.074066 277.044098,177.766327 275.200348,179.557755 
	C270.536194,184.089615 265.638977,188.381592 260.516235,192.843872 
	C260.846619,191.027695 261.008972,188.712158 262.226410,187.317947 
	C268.720947,179.880356 275.165405,172.346054 282.276886,165.522308 
	C285.910614,162.035614 290.903412,159.965317 295.980591,157.117722 
	C297.443542,156.995789 298.207825,157.010956 298.972076,157.026138 
z"/>
<path fill="#26A4AF" opacity="1.000000" stroke="none" 
	d="
M113.749863,359.042603 
	C116.384483,371.290344 117.331009,384.109589 125.867065,395.093536 
	C126.681160,398.127228 127.350746,400.475769 128.020325,402.824310 
	C125.402580,399.790253 122.119987,397.107971 120.293121,393.655426 
	C115.053810,383.753754 110.350449,373.555450 111.293457,361.221802 
	C112.282265,360.064392 113.016068,359.553497 113.749863,359.042603 
z"/>
<path fill="#23A8B6" opacity="1.000000" stroke="none" 
	d="
M38.961838,298.006378 
	C42.552879,285.162994 51.349358,278.277191 64.914902,275.994507 
	C66.124878,276.028351 66.581863,276.055389 67.031906,276.425598 
	C67.016800,277.455017 67.008659,278.141327 67.000519,278.827606 
	C60.521511,281.714172 53.097237,283.023224 48.481434,289.101318 
	C45.666683,292.807831 43.326229,296.874512 40.248665,300.729797 
	C39.466843,300.144653 39.209095,299.609100 38.957443,298.806305 
	C38.962978,298.361481 38.962410,298.183929 38.961838,298.006378 
z"/>
<path fill="#2DACBB" opacity="1.000000" stroke="none" 
	d="
M477.138489,373.390686 
	C478.548401,370.494446 479.901337,367.905609 481.554321,365.151428 
	C480.048950,381.322479 473.440552,395.187347 460.441223,405.973999 
	C462.577484,401.641724 465.112518,397.306000 467.513184,392.897125 
	C469.916870,388.482697 472.186279,383.995148 475.059692,379.120667 
	C476.048126,377.447906 476.491394,376.194153 476.934692,374.940369 
	C476.983582,374.526276 477.032532,374.112213 477.138489,373.390686 
z"/>
<path fill="#31AEBB" opacity="1.000000" stroke="none" 
	d="
M298.992188,157.015121 
	C298.207825,157.010956 297.443542,156.995789 296.296875,156.973236 
	C298.498993,154.946716 300.835388,152.420715 303.717590,151.009644 
	C310.576691,147.651535 317.652008,144.717621 324.730743,141.835358 
	C327.052521,140.889984 329.653900,140.631271 332.523132,140.099976 
	C332.088074,140.981598 331.257324,141.821762 330.205811,142.883163 
	C328.457062,143.971008 326.980896,144.949615 325.392273,145.685379 
	C317.500183,149.340652 309.578461,152.931915 301.224060,156.418259 
	C300.198853,156.515289 299.616791,156.739822 299.034698,156.964340 
	C299.034698,156.964340 299.012299,157.004105 298.992188,157.015121 
z"/>
<path fill="#1EACB8" opacity="1.000000" stroke="none" 
	d="
M235.161850,405.144958 
	C238.881851,399.709290 242.707016,394.341431 246.277191,388.809052 
	C248.046082,386.067993 249.220566,382.948242 250.915085,380.152008 
	C251.666031,378.912750 253.039307,378.050629 254.500504,376.975586 
	C254.003540,382.821838 252.843002,388.601959 249.048569,393.464478 
	C247.310150,395.692230 245.622421,397.959534 243.528320,400.655884 
	C242.691086,401.905640 242.237213,402.708466 241.783340,403.511261 
	C241.783340,403.511261 241.748413,403.733887 241.273956,403.692139 
	C238.920273,404.148590 237.041061,404.646790 235.161850,405.144958 
z"/>
<path fill="#53B3BD" opacity="1.000000" stroke="none" 
	d="
M482.443970,361.824493 
	C481.993530,361.268097 481.910187,360.479462 481.857513,358.839050 
	C481.939636,324.204498 482.004547,290.421692 482.000854,256.638916 
	C482.000671,255.029053 481.393372,253.419250 481.068848,251.809418 
	C481.181519,249.063965 481.294189,246.318527 481.627106,243.230835 
	C482.253082,244.260284 483.011658,245.631622 483.013092,247.003738 
	C483.052368,284.873596 483.015137,322.743530 482.982391,360.613434 
	C482.982117,360.939728 482.870605,361.265961 482.443970,361.824493 
z"/>
<path fill="#23A8B6" opacity="1.000000" stroke="none" 
	d="
M327.951569,293.648102 
	C327.277191,294.309357 326.523010,294.617920 325.458801,294.951233 
	C320.774048,291.003357 316.458160,286.962463 311.984253,283.104828 
	C310.827026,282.107025 309.174347,281.683746 307.379303,280.542664 
	C307.003387,279.058807 306.997406,278.028931 306.991455,276.999023 
	C315.883179,279.956177 324.582001,283.160553 327.951569,293.648102 
z"/>
<path fill="#23A8B6" opacity="1.000000" stroke="none" 
	d="
M151.948807,419.071289 
	C158.391571,421.423065 164.807678,423.852570 171.294067,426.077209 
	C173.130539,426.707031 175.172211,426.738525 177.548798,427.402802 
	C177.982590,428.449463 177.987350,429.137726 177.992126,429.826019 
	C170.771912,430.794464 164.714539,426.967133 158.222137,424.974365 
	C155.662399,424.188690 153.227463,422.996429 150.359268,421.569702 
	C149.967072,420.463257 149.951324,419.776367 150.271530,419.076874 
	C151.054596,419.066589 151.501694,419.068939 151.948807,419.071289 
z"/>
<path fill="#17A4B2" opacity="1.000000" stroke="none" 
	d="
M38.951347,299.073578 
	C39.209095,299.609100 39.466843,300.144653 39.928394,300.899597 
	C39.412636,308.762299 38.679337,316.404327 37.980785,324.049500 
	C37.728130,326.814606 37.983620,330.190857 33.230556,326.704834 
	C32.371616,326.090637 31.929041,325.866455 31.486469,325.642242 
	C31.486467,325.642242 31.217440,325.690094 31.377228,325.159821 
	C31.691553,324.063202 31.846092,323.496887 32.309563,323.033630 
	C33.403584,322.213562 34.754185,321.353546 34.865726,320.355103 
	C35.176804,317.570587 35.054455,314.725922 34.956638,311.910065 
	C34.791180,307.147003 35.495026,302.692078 38.951347,299.073578 
z"/>
<path fill="#17AFBF" opacity="1.000000" stroke="none" 
	d="
M259.549622,194.081696 
	C260.980682,196.551178 262.532928,199.135925 258.379028,200.787109 
	C257.543884,201.119080 257.247253,202.957458 256.822601,204.144333 
	C254.944168,209.394379 250.160339,212.352417 246.422485,210.108719 
	C247.035477,209.038467 247.553421,208.447662 248.071381,207.856857 
	C250.010880,205.345673 251.900314,202.793625 253.905228,200.335800 
	C255.612366,198.243057 257.452515,196.258774 259.549622,194.081696 
z"/>
<path fill="#27ADBD" opacity="1.000000" stroke="none" 
	d="
M113.674904,358.675659 
	C113.016068,359.553497 112.282265,360.064392 111.342430,360.763763 
	C110.737892,356.949860 110.339401,352.947479 109.983322,348.027466 
	C110.079117,336.742249 110.132500,326.374664 110.185867,316.007050 
	C110.660797,316.222565 111.135719,316.438080 111.808472,316.826538 
	C112.016602,328.393585 111.940056,339.788940 112.107819,351.180664 
	C112.142914,353.563477 113.079033,355.933044 113.674904,358.675659 
z"/>
<path fill="#1CA8B4" opacity="1.000000" stroke="none" 
	d="
M16.109463,248.225037 
	C16.849598,247.963425 17.533401,247.952774 18.556339,247.920715 
	C18.937908,255.617416 18.980341,263.335571 19.013142,271.989929 
	C18.622236,278.316589 18.240963,283.706970 17.859690,289.097382 
	C17.253490,283.370728 16.647295,277.644104 16.311544,271.108307 
	C16.439627,263.192871 16.297264,256.086578 16.154900,248.980286 
	C16.120975,248.812195 16.087051,248.644104 16.109463,248.225037 
z"/>
<path fill="#26A4AF" opacity="1.000000" stroke="none" 
	d="
M215.402664,422.771515 
	C217.225586,417.134491 222.667709,414.689972 226.950699,411.150848 
	C229.069092,409.400360 231.856903,408.459991 234.592163,407.364136 
	C234.567825,408.976166 234.293198,410.377228 234.018555,411.778259 
	C233.858398,411.832520 233.698212,411.886810 233.080872,411.889404 
	C232.087372,412.501801 231.551056,413.165955 231.014709,413.830109 
	C225.931717,416.791046 220.848709,419.752014 215.402664,422.771515 
z"/>
<path fill="#2DACBB" opacity="1.000000" stroke="none" 
	d="
M32.000629,322.930542 
	C31.846092,323.496887 31.691553,324.063202 31.345325,325.026978 
	C27.908117,317.691650 24.662594,309.958862 21.716274,302.025452 
	C23.951117,304.468201 25.997175,307.039673 27.782595,309.780884 
	C28.924992,311.534882 29.682468,313.539551 30.792393,316.128967 
	C31.315063,318.860931 31.657848,320.895721 32.000629,322.930542 
z"/>
<path fill="#1CA8B4" opacity="1.000000" stroke="none" 
	d="
M247.892609,207.542511 
	C247.553421,208.447662 247.035477,209.038467 246.276764,209.799377 
	C244.389938,208.195160 242.743896,206.420822 241.051056,203.880768 
	C240.891571,199.536224 240.936005,195.887177 236.949783,194.038666 
	C236.949783,194.038666 236.990875,193.997238 236.919464,193.693390 
	C236.217560,192.263321 235.587051,191.137100 234.956543,190.010880 
	C234.956543,190.010880 235.006668,190.010269 234.891907,189.744537 
	C234.191803,188.992691 233.606476,188.506561 233.021133,188.020432 
	C233.021133,188.020432 232.994278,188.006470 233.000259,187.606293 
	C233.052872,186.435120 233.099518,185.664124 233.146149,184.893112 
	C238.002045,192.338120 242.857941,199.783142 247.892609,207.542511 
z"/>
<path fill="#17AFBF" opacity="1.000000" stroke="none" 
	d="
M17.917091,289.493408 
	C18.240963,283.706970 18.622236,278.316589 19.012592,272.457947 
	C19.293932,272.172394 19.783644,272.330902 19.807047,272.541290 
	C20.675798,280.351166 21.507238,288.165253 22.301443,295.983032 
	C22.322557,296.190887 21.875856,296.446228 21.320189,296.880890 
	C19.986874,294.684723 18.980682,292.287079 17.917091,289.493408 
z"/>
<path fill="#31AEBB" opacity="1.000000" stroke="none" 
	d="
M149.935577,419.089508 
	C149.951324,419.776367 149.967072,420.463257 149.984161,421.493652 
	C142.020462,418.166931 135.512314,412.721497 130.621216,405.356201 
	C131.947540,405.024872 132.960571,405.024811 133.973618,405.024750 
	C133.973618,405.024750 133.999390,405.001221 134.020416,405.338440 
	C134.690445,406.452789 135.339462,407.229858 136.203506,408.194580 
	C136.944473,408.587708 137.470383,408.793243 137.996307,408.998779 
	C137.996307,408.998779 137.999390,409.001221 138.136230,409.305359 
	C142.160568,412.769501 146.048065,415.929504 149.935577,419.089508 
z"/>
<path fill="#17AFBF" opacity="1.000000" stroke="none" 
	d="
M194.995056,426.938110 
	C200.858917,425.534393 206.722794,424.130707 212.857849,422.871094 
	C209.606247,424.659607 206.131516,426.420258 202.542618,427.904907 
	C200.384628,428.797607 198.048691,429.260193 195.412613,429.493530 
	C195.020020,428.360046 195.007538,427.649078 194.995056,426.938110 
z"/>
<path fill="#17A4B2" opacity="1.000000" stroke="none" 
	d="
M233.125000,184.907150 
	C233.099518,185.664124 233.052872,186.435120 232.995667,187.591888 
	C232.071060,187.619995 230.841949,187.523743 230.293655,186.862762 
	C226.448990,182.227783 222.744843,177.476257 219.331787,172.397476 
	C220.172577,172.019409 220.677338,172.005859 221.182098,171.992325 
	C224.249954,175.267242 227.317825,178.542160 230.733841,182.300629 
	C231.767853,183.490921 232.453705,184.197678 233.139557,184.904434 
	C233.139557,184.904434 233.103867,184.921188 233.125000,184.907150 
z"/>
<path fill="#17A4B2" opacity="1.000000" stroke="none" 
	d="
M200.019974,158.002609 
	C196.005646,158.886353 189.977081,154.978622 187.080292,149.302490 
	C191.481354,151.255630 195.940475,153.558975 200.587341,156.237625 
	C200.523392,157.076157 200.271683,157.539383 200.019974,158.002609 
z"/>
<path fill="#26A4AF" opacity="1.000000" stroke="none" 
	d="
M333.132111,375.387024 
	C333.885468,374.993408 334.574982,374.993805 335.608093,374.996674 
	C337.636017,380.024414 339.320404,385.049622 341.076447,390.470947 
	C336.156921,387.069092 334.823547,381.312073 333.132111,375.387024 
z"/>
<path fill="#17AFBF" opacity="1.000000" stroke="none" 
	d="
M416.151672,153.303635 
	C418.609589,153.221466 421.168976,153.455643 423.885864,153.405396 
	C425.966187,154.518036 427.888947,155.915070 429.769958,157.873352 
	C430.484009,159.959824 431.239838,161.485046 431.995667,163.010254 
	C430.382538,162.332840 427.915405,162.088425 427.312317,160.898926 
	C425.294312,156.918823 422.551361,156.302505 418.812897,158.157104 
	C417.865234,156.477432 417.059143,155.048706 416.151672,153.303635 
z"/>
<path fill="#9BE4E4" opacity="1.000000" stroke="none" 
	d="
M329.078522,305.153992 
	C329.487946,307.419128 330.156586,310.183258 330.184753,312.953918 
	C330.330353,327.251801 330.311859,341.551361 330.285706,356.719360 
	C330.142639,358.441498 330.064484,359.294678 329.986328,360.147827 
	C329.645233,358.976654 329.009918,357.806183 329.007294,356.634247 
	C328.969208,339.641571 329.015900,322.648773 329.078522,305.153992 
z"/>
<path fill="#17A4B2" opacity="1.000000" stroke="none" 
	d="
M413.547455,427.008545 
	C414.012909,427.711548 414.008728,428.405334 414.000275,429.446167 
	C408.318909,429.843445 402.641815,429.893616 396.506653,429.878662 
	C396.041595,429.096863 396.034607,428.380188 396.032166,427.303955 
	C401.717072,426.962646 407.397461,426.980988 413.547455,427.008545 
z"/>
<path fill="#17A4B2" opacity="1.000000" stroke="none" 
	d="
M194.527939,426.948883 
	C195.007538,427.649078 195.020020,428.360046 195.026947,429.425690 
	C189.654205,429.841064 184.287018,429.901764 178.455994,429.894226 
	C177.987350,429.137726 177.982590,428.449463 177.968689,427.419006 
	C183.326645,427.037781 188.693726,426.998718 194.527939,426.948883 
z"/>
<path fill="#26A4AF" opacity="1.000000" stroke="none" 
	d="
M306.740356,276.985992 
	C306.997406,278.028931 307.003387,279.058807 307.015472,280.474823 
	C301.992706,280.219879 296.963837,279.578857 291.480103,278.869934 
	C291.018280,278.102356 291.011322,277.402679 290.997742,276.353271 
	C290.991058,276.003510 290.998169,275.995453 291.459686,276.001953 
	C296.609589,276.330536 301.297974,276.652588 305.986359,276.974670 
	C306.153992,276.974091 306.321594,276.973541 306.740356,276.985992 
z"/>
<path fill="#31AEBB" opacity="1.000000" stroke="none" 
	d="
M348.892792,400.542908 
	C349.033813,401.665405 349.012695,402.482635 348.983337,403.707001 
	C346.367126,400.889923 343.687897,397.718262 341.229187,394.383972 
	C340.867188,393.893097 341.550903,392.631134 341.820435,391.376953 
	C344.170288,394.097870 346.450470,397.167786 348.892792,400.542908 
z"/>
<path fill="#2DACBB" opacity="1.000000" stroke="none" 
	d="
M74.496422,154.146301 
	C71.981583,156.938080 69.109756,159.651642 66.091995,162.667480 
	C65.946068,162.969742 65.496040,163.008881 64.883392,163.018707 
	C63.249729,163.095490 62.228718,163.162445 61.207710,163.229401 
	C61.207710,163.229401 61.046574,163.053589 60.965977,162.965729 
	C65.303398,159.941269 69.721413,157.004684 74.496422,154.146301 
z"/>
<path fill="#289AA7" opacity="1.000000" stroke="none" 
	d="
M67.431107,278.891296 
	C67.008659,278.141327 67.016800,277.455017 67.493591,276.399780 
	C72.645599,276.073334 77.328964,276.115845 82.012337,276.158325 
	C81.776367,276.958893 81.540398,277.759430 81.099258,278.801758 
	C76.549957,279.014038 72.205833,278.984528 67.431107,278.891296 
z"/>
<path fill="#53B3BD" opacity="1.000000" stroke="none" 
	d="
M15.953117,249.362869 
	C16.297264,256.086578 16.439627,263.192871 16.375448,270.659821 
	C16.029715,263.928802 15.890524,256.837128 15.953117,249.362869 
z"/>
<path fill="#31AEBB" opacity="1.000000" stroke="none" 
	d="
M200.198471,158.287018 
	C200.271683,157.539383 200.523392,157.076157 200.907715,156.383881 
	C204.379044,158.150894 207.717743,160.146927 211.031754,162.566605 
	C211.007065,162.990265 210.893799,163.108475 210.507263,163.092804 
	C209.338730,163.066605 208.556763,163.056076 207.774780,163.045532 
	C205.308853,161.554153 202.842911,160.062790 200.198471,158.287018 
z"/>
<path fill="#17AFBF" opacity="1.000000" stroke="none" 
	d="
M133.966110,404.656128 
	C132.960571,405.024811 131.947540,405.024872 130.554321,405.029144 
	C129.645477,404.388123 129.116821,403.742889 128.304230,402.960999 
	C127.350746,400.475769 126.681160,398.127228 125.993629,395.406586 
	C128.636658,398.118835 131.297638,401.203156 133.966110,404.656128 
z"/>
<path fill="#FFFFFF" opacity="1.000000" stroke="none" 
	d="
M110.108231,315.715454 
	C110.132500,326.374664 110.079117,336.742249 109.939621,347.573853 
	C109.568993,346.041138 109.057747,344.046631 109.038940,342.047455 
	C108.953888,333.008453 109.008080,323.968201 109.090317,314.463745 
	C109.455879,314.474030 109.743233,314.948914 110.108231,315.715454 
z"/>
<path fill="#26A4AF" opacity="1.000000" stroke="none" 
	d="
M432.244446,163.243561 
	C431.239838,161.485046 430.484009,159.959824 429.897644,158.185928 
	C432.179901,159.240631 434.292664,160.544006 436.721497,161.996277 
	C437.086945,162.951752 437.136414,163.758362 437.092926,164.786758 
	C435.497742,164.498001 433.995514,163.987427 432.244446,163.243561 
z"/>
<path fill="#31AEBB" opacity="1.000000" stroke="none" 
	d="
M221.107605,171.631042 
	C220.677338,172.005859 220.172577,172.019409 219.287811,172.039459 
	C217.758377,171.193359 216.608948,170.340744 215.087326,168.999908 
	C213.826889,167.662842 212.938629,166.814011 212.050369,165.965179 
	C211.860382,165.727432 211.652130,165.506897 211.217712,164.839081 
	C210.971115,163.952515 210.932465,163.530502 210.893799,163.108475 
	C210.893799,163.108475 211.007065,162.990265 211.063354,162.930817 
	C214.424133,165.670837 217.728638,168.470291 221.107605,171.631042 
z"/>
<path fill="#64C5CD" opacity="1.000000" stroke="none" 
	d="
M329.979248,360.571686 
	C330.064484,359.294678 330.142639,358.441498 330.319397,357.170959 
	C330.950714,359.441498 331.575195,362.115356 331.990631,364.821320 
	C332.418152,367.605927 332.641815,370.421844 332.914886,373.644379 
	C331.907410,369.708313 330.939789,365.351929 329.979248,360.571686 
z"/>
<path fill="#31AEBB" opacity="1.000000" stroke="none" 
	d="
M234.358826,411.739441 
	C234.293198,410.377228 234.567825,408.976166 234.911194,407.217712 
	C235.008636,406.477142 235.037369,406.094055 235.113968,405.427948 
	C237.041061,404.646790 238.920273,404.148590 241.162872,403.710999 
	C239.250534,406.414581 236.974823,409.057587 234.358826,411.739441 
z"/>
<path fill="#289AA7" opacity="1.000000" stroke="none" 
	d="
M84.125793,280.394318 
	C84.643410,279.549530 85.313858,278.997314 85.984306,278.445068 
	C86.378708,279.159576 86.773109,279.874115 87.015915,280.823547 
	C86.002411,280.934601 85.140511,280.810730 84.125793,280.394318 
z"/>
<path fill="#31AEBB" opacity="1.000000" stroke="none" 
	d="
M231.305450,413.839050 
	C231.551056,413.165955 232.087372,412.501801 232.839020,411.966064 
	C232.568283,412.678986 232.082214,413.263489 231.305450,413.839050 
z"/>
<path fill="#31AEBB" opacity="1.000000" stroke="none" 
	d="
M242.014923,403.342407 
	C242.237213,402.708466 242.691086,401.905640 243.466919,401.040283 
	C243.274765,401.709686 242.760651,402.441650 242.014923,403.342407 
z"/>
<path fill="#1CA8B4" opacity="1.000000" stroke="none" 
	d="
M233.005325,184.617233 
	C232.453705,184.197678 231.767853,183.490921 231.039490,182.464478 
	C231.621674,182.873199 232.246384,183.601624 233.005325,184.617233 
z"/>
<path fill="#27ADBD" opacity="1.000000" stroke="none" 
	d="
M108.012985,305.372833 
	C108.411644,305.618103 108.744827,306.159332 108.935455,306.884521 
	C108.511108,306.601929 108.229317,306.135376 108.012985,305.372833 
z"/>
<path fill="#64C5CD" opacity="1.000000" stroke="none" 
	d="
M464.081848,191.633392 
	C463.707336,191.433548 463.316528,190.865479 462.934082,189.929504 
	C463.316803,190.129456 463.691193,190.697311 464.081848,191.633392 
z"/>
<path fill="#2DACBB" opacity="1.000000" stroke="none" 
	d="
M31.624294,325.879059 
	C31.929041,325.866455 32.371616,326.090637 32.944740,326.537994 
	C32.637569,326.546051 32.199844,326.330963 31.624294,325.879059 
z"/>
<path fill="#64C5CD" opacity="1.000000" stroke="none" 
	d="
M466.159790,194.684753 
	C465.825989,194.528961 465.410187,194.044113 465.029968,193.230301 
	C465.402985,193.386139 465.740387,193.870926 466.159790,194.684753 
z"/>
<path fill="#64C5CD" opacity="1.000000" stroke="none" 
	d="
M456.953369,181.112793 
	C456.379364,181.145081 455.830597,180.777756 455.116791,180.112289 
	C455.627380,180.113831 456.302979,180.413513 456.953369,181.112793 
z"/>
<path fill="#9BE4E4" opacity="1.000000" stroke="none" 
	d="
M328.026642,302.080292 
	C328.472687,302.334351 328.858765,302.991852 329.168793,304.048889 
	C328.717377,303.793518 328.342041,303.138641 328.026642,302.080292 
z"/>
<path fill="#64C5CD" opacity="1.000000" stroke="none" 
	d="
M460.068695,184.661545 
	C459.800507,184.776566 459.468872,184.616318 459.092773,184.168518 
	C459.367249,184.049393 459.686279,184.217834 460.068695,184.661545 
z"/>
<path fill="#64C5CD" opacity="1.000000" stroke="none" 
	d="
M459.044983,183.688599 
	C458.808563,183.782181 458.496887,183.606155 458.105652,183.163147 
	C458.340607,183.070450 458.655151,183.244705 459.044983,183.688599 
z"/>
<path fill="#64C5CD" opacity="1.000000" stroke="none" 
	d="
M458.023560,182.679932 
	C457.796173,182.717529 457.490509,182.448395 457.075500,181.877838 
	C457.292511,181.841995 457.618927,182.107590 458.023560,182.679932 
z"/>
<path fill="#64C5CD" opacity="1.000000" stroke="none" 
	d="
M465.035461,192.704559 
	C464.810944,192.787506 464.510742,192.599426 464.111450,192.158417 
	C464.328125,192.081497 464.643921,192.257523 465.035461,192.704559 
z"/>
<path fill="#64C5CD" opacity="1.000000" stroke="none" 
	d="
M460.989838,186.070404 
	C460.656891,186.114258 460.369995,185.812561 460.079437,185.193817 
	C460.395844,185.159454 460.715851,185.442169 460.989838,186.070404 
z"/>
<path fill="#64C5CD" opacity="1.000000" stroke="none" 
	d="
M462.942261,189.134628 
	C462.632996,189.167648 462.352112,188.859085 462.061462,188.232605 
	C462.358002,188.207458 462.664337,188.500259 462.942261,189.134628 
z"/>
<path fill="#64C5CD" opacity="1.000000" stroke="none" 
	d="
M462.020599,187.665451 
	C461.781799,187.709702 461.470337,187.443741 461.059784,186.864716 
	C461.289764,186.819519 461.618866,187.087372 462.020599,187.665451 
z"/>
<path fill="#09B3D4" opacity="1.000000" stroke="none" 
	d="
M472.706329,221.983276 
	C474.407684,226.347443 475.948242,230.649429 476.953766,235.073044 
	C477.925476,239.347855 478.345856,243.747971 479.001099,248.537292 
	C478.330963,250.546265 477.637360,252.098862 477.013092,253.678864 
	C476.256256,255.594452 475.558044,257.533203 474.834534,259.461945 
	C474.223083,257.420258 473.147186,255.392715 473.084351,253.334274 
	C472.866669,246.204666 473.015656,239.064255 472.990112,231.928070 
	C472.984863,230.461838 472.828552,228.996155 472.742401,227.538818 
	C464.714905,227.791290 463.784576,226.799118 466.223022,220.545502 
	C468.227203,221.015823 470.269379,221.495056 472.706329,221.983276 
z"/>
<path fill="#05B8C4" opacity="1.000000" stroke="none" 
	d="
M32.309563,323.033630 
	C31.657848,320.895721 31.315063,318.860931 30.979734,316.427063 
	C31.594418,314.468536 32.800507,312.864960 32.689449,311.358459 
	C32.423862,307.755646 32.109356,303.961212 30.749306,300.686615 
	C29.251688,297.080811 30.066988,294.056580 30.962978,290.702698 
	C32.056305,286.610138 32.790989,282.421753 33.911446,277.199738 
	C37.772991,284.228455 32.928082,292.133362 38.653259,297.842682 
	C38.962410,298.183929 38.962978,298.361481 38.957443,298.806305 
	C35.495026,302.692078 34.791180,307.147003 34.956638,311.910065 
	C35.054455,314.725922 35.176804,317.570587 34.865726,320.355103 
	C34.754185,321.353546 33.403584,322.213562 32.309563,323.033630 
z"/>
<path fill="#09B3D4" opacity="1.000000" stroke="none" 
	d="
M126.042847,307.439148 
	C126.024078,303.355469 125.769981,299.685181 126.152924,296.082581 
	C126.299812,294.700745 127.900421,293.473389 128.838608,292.175659 
	C129.900070,293.182831 131.646408,294.042297 131.901154,295.223450 
	C132.862015,299.678558 133.614273,304.223450 133.858154,308.766174 
	C133.954605,310.562683 132.516022,312.441650 131.776367,314.283051 
	C130.160736,313.085724 128.427094,312.011841 126.984680,310.633270 
	C126.365372,310.041382 126.350891,308.816681 126.042847,307.439148 
z"/>
<path fill="#0DB4C1" opacity="1.000000" stroke="none" 
	d="
M61.073792,163.535095 
	C62.228718,163.162445 63.249729,163.095490 64.658585,163.040512 
	C61.992828,167.568268 58.951759,172.092621 55.872208,176.590637 
	C55.406982,177.270142 54.328178,177.787125 54.267792,178.446533 
	C53.633610,185.371735 48.246380,184.380997 43.372826,184.911926 
	C46.493206,180.920486 50.029118,176.946732 53.483597,172.903397 
	C56.024223,169.929688 58.458313,166.864960 61.073792,163.535095 
z"/>
<path fill="#09B3D4" opacity="1.000000" stroke="none" 
	d="
M357.941833,141.325424 
	C359.391388,140.977264 360.773865,140.968277 362.570374,140.964081 
	C365.356232,141.644867 367.711792,142.386490 370.104462,142.978287 
	C372.466919,143.562607 374.866882,143.995331 377.756653,144.600586 
	C375.426819,149.534088 371.896088,149.278366 368.778137,148.888351 
	C365.578674,148.488159 362.336365,147.554123 359.427765,146.184738 
	C358.423370,145.711884 358.365173,143.229218 357.941833,141.325424 
z"/>
<path fill="#289AA7" opacity="1.000000" stroke="none" 
	d="
M481.049683,252.242737 
	C481.393372,253.419250 482.000671,255.029053 482.000854,256.638916 
	C482.004547,290.421692 481.939636,324.204498 481.841827,358.442383 
	C481.533600,356.613434 481.049408,354.330017 481.043518,352.045319 
	C480.965210,321.643219 480.953979,291.240997 480.879242,260.359924 
	C480.838501,258.877533 480.844513,257.873962 480.834290,256.495056 
	C480.888885,254.971786 480.959717,253.823914 481.049683,252.242737 
z"/>
<path fill="#09B3D4" opacity="1.000000" stroke="none" 
	d="
M282.163055,264.729156 
	C284.823425,264.407532 287.172119,263.924500 289.427185,264.202057 
	C292.634125,264.596771 293.700317,267.674469 291.741241,270.090942 
	C289.475616,272.885559 281.018066,272.114777 279.797546,268.763763 
	C279.462708,267.844513 281.085236,266.212372 282.163055,264.729156 
z"/>
<path fill="#0DB4C1" opacity="1.000000" stroke="none" 
	d="
M150.271530,419.076874 
	C146.048065,415.929504 142.160568,412.769501 138.137390,409.306335 
	C145.059341,407.891510 149.161484,411.366730 151.877380,418.784821 
	C151.501694,419.068939 151.054596,419.066589 150.271530,419.076874 
z"/>
<path fill="#0DB4C1" opacity="1.000000" stroke="none" 
	d="
M37.172562,196.073364 
	C38.714539,192.326263 40.521954,188.800491 42.628796,185.137360 
	C42.001728,189.854385 41.075233,194.708786 40.077267,199.937653 
	C39.193672,198.718033 38.315838,197.506378 37.172562,196.073364 
z"/>
<path fill="#05B8C4" opacity="1.000000" stroke="none" 
	d="
M31.452520,264.791260 
	C32.643951,263.960236 33.701908,263.465271 34.759865,262.970306 
	C35.122639,264.005768 35.916325,265.114227 35.755882,266.061005 
	C35.449223,267.870667 34.599365,269.588226 33.974957,271.344025 
	C33.418961,271.341827 32.862961,271.339600 32.306961,271.337402 
	C31.977657,269.267365 31.648352,267.197357 31.452520,264.791260 
z"/>
<path fill="#0DB4C1" opacity="1.000000" stroke="none" 
	d="
M82.265991,276.109344 
	C77.328964,276.115845 72.645599,276.073334 67.500542,276.056641 
	C66.581863,276.055389 66.124878,276.028351 65.325233,275.981689 
	C70.740334,272.366577 76.675751,273.601410 82.828568,275.641663 
	C82.858849,276.000275 82.689255,276.030304 82.265991,276.109344 
z"/>
<path fill="#17A4B2" opacity="1.000000" stroke="none" 
	d="
M305.753662,276.693604 
	C301.297974,276.652588 296.609589,276.330536 291.464294,276.000641 
	C294.828003,272.976410 302.071594,273.185913 305.753662,276.693604 
z"/>
<path fill="#1CA8B4" opacity="1.000000" stroke="none" 
	d="
M19.028084,243.728348 
	C18.979355,241.508469 18.707275,238.924484 19.009871,236.409637 
	C19.360336,233.496994 20.216084,230.645142 20.969601,227.934082 
	C21.019987,231.790405 20.953251,235.479538 20.599113,239.734802 
	C19.907303,240.886536 19.502890,241.472168 19.098480,242.057816 
	C19.085251,242.503479 19.072018,242.949142 19.028084,243.728348 
z"/>
<path fill="#17A4B2" opacity="1.000000" stroke="none" 
	d="
M236.999649,194.411575 
	C240.936005,195.887177 240.891571,199.536224 241.009186,203.521515 
	C239.692581,200.880127 238.371048,197.832306 236.999649,194.411575 
z"/>
<path fill="#17AFBF" opacity="1.000000" stroke="none" 
	d="
M410.128357,149.357269 
	C411.925507,150.133514 413.847778,151.223801 415.887939,152.631378 
	C414.088348,151.856232 412.170898,150.763779 410.128357,149.357269 
z"/>
<path fill="#1EACB8" opacity="1.000000" stroke="none" 
	d="
M476.638763,375.105164 
	C476.491394,376.194153 476.048126,377.447906 475.288574,378.839844 
	C475.429138,377.742035 475.885986,376.505981 476.638763,375.105164 
z"/>
<path fill="#17A4B2" opacity="1.000000" stroke="none" 
	d="
M212.084824,166.310730 
	C212.938629,166.814011 213.826889,167.662842 214.859695,168.790558 
	C214.042603,168.265045 213.080948,167.460663 212.084824,166.310730 
z"/>
<path fill="#17AFBF" opacity="1.000000" stroke="none" 
	d="
M135.988464,408.006958 
	C135.339462,407.229858 134.690445,406.452789 134.008759,405.349335 
	C134.581238,405.497589 135.186401,405.972229 135.894135,406.976959 
	C135.996719,407.507080 135.988464,408.006958 135.988464,408.006958 
z"/>
<path fill="#0DB4C1" opacity="1.000000" stroke="none" 
	d="
M83.996902,157.002930 
	C84.675087,157.183670 85.356308,157.361481 86.037529,157.539276 
	C85.936096,157.802368 85.834671,158.065475 85.733238,158.328583 
	C85.220848,158.052124 84.708450,157.775665 84.100494,157.246597 
	C84.004921,156.993973 83.999939,157.000000 83.996902,157.002930 
z"/>
<path fill="#17A4B2" opacity="1.000000" stroke="none" 
	d="
M234.961121,190.366852 
	C235.587051,191.137100 236.217560,192.263321 236.903442,193.715515 
	C236.294418,192.935287 235.630051,191.829071 234.961121,190.366852 
z"/>
<path fill="#17A4B2" opacity="1.000000" stroke="none" 
	d="
M210.507263,163.092804 
	C210.932465,163.530502 210.971115,163.952515 211.044128,164.691681 
	C210.099960,164.546463 209.121429,164.084091 207.958847,163.333618 
	C208.556763,163.056076 209.338730,163.066605 210.507263,163.092804 
z"/>
<path fill="#2DACBB" opacity="1.000000" stroke="none" 
	d="
M19.346504,241.934753 
	C19.502890,241.472168 19.907303,240.886536 20.562653,240.199768 
	C20.407236,240.669632 20.000883,241.240662 19.346504,241.934753 
z"/>
<path fill="#0DB4C1" opacity="1.000000" stroke="none" 
	d="
M136.203506,408.194580 
	C135.988464,408.006958 135.996719,407.507080 136.001343,407.257263 
	C136.601578,407.484650 137.197205,407.961853 137.894562,408.718933 
	C137.470383,408.793243 136.944473,408.587708 136.203506,408.194580 
z"/>
<path fill="#2DACBB" opacity="1.000000" stroke="none" 
	d="
M299.361847,156.943878 
	C299.616791,156.739822 300.198853,156.515289 300.874878,156.472610 
	C300.542175,156.744110 300.115601,156.833755 299.361847,156.943878 
z"/>
<path fill="#17A4B2" opacity="1.000000" stroke="none" 
	d="
M233.114136,188.300842 
	C233.606476,188.506561 234.191803,188.992691 234.873535,189.761627 
	C234.382324,189.556686 233.794739,189.068954 233.114136,188.300842 
z"/>
</svg>